<?xml version="1.0" encoding="UTF-8" standalone="no"?>
<svg
   width="245"
   height="245"
   viewBox="0 0 64.822938 64.822938"
   version="1.1"
   id="svg942"
   sodipodi:docname="peppermint.svg"
   inkscape:version="1.2.1 (9c6d41e, 2022-07-14)"
   inkscape:export-filename="../icon.png"
   inkscape:export-xdpi="75.232651"
   inkscape:export-ydpi="75.232651"
   xmlns:inkscape="http://www.inkscape.org/namespaces/inkscape"
   xmlns:sodipodi="http://sodipodi.sourceforge.net/DTD/sodipodi-0.dtd"
   xmlns="http://www.w3.org/2000/svg"
   xmlns:svg="http://www.w3.org/2000/svg">
  <sodipodi:namedview
     id="namedview944"
     pagecolor="#ffffff"
     bordercolor="#000000"
     borderopacity="0.25"
     inkscape:showpageshadow="2"
     inkscape:pageopacity="0.0"
     inkscape:pagecheckerboard="0"
     inkscape:deskcolor="#d1d1d1"
     showgrid="false"
     inkscape:zoom="1.6854398"
     inkscape:cx="73.867961"
     inkscape:cy="129.63975"
     inkscape:window-width="1706"
     inkscape:window-height="1387"
     inkscape:window-x="0"
     inkscape:window-y="25"
     inkscape:window-maximized="0"
     inkscape:current-layer="svg942" />
  <defs
     id="defs930">
    <clipPath
       id="A">
      <ellipse
         cx="39.555"
         cy="39.688"
         rx="27.384001"
         ry="29.104"
         fill="#000000"
         stroke-width="0.265"
         id="ellipse927" />
    </clipPath>
  </defs>
  <ellipse
     style="fill:#ffffff;stroke-width:0.264583"
     id="path1358"
     ry="27.528723"
     rx="23.976631"
     cy="33.522884"
     cx="30.414799" />
  <g
     clip-path="url(#A)"
     transform="translate(-9.2634977,-5.9606628)"
     id="g940">
    <path
       d="m 41.614,65.982 a 17.14,17.14 0 0 1 2.381,0.002 c 0.614,0.055 0.045,0.1 -1.265,0.099 -1.31,-0.001 -1.812,-0.046 -1.116,-0.101 z m -2.785,-0.485 c -0.777,-0.422 -1.787,-2.126 -1.787,-3.014 0,-0.632 -1.083,-3.777 -2.627,-7.632 -2.125,-5.306 -2.635,-9.248 -1.617,-12.518 0.285,-0.916 0.472,-1.713 0.414,-1.77 -0.213,-0.213 -0.689,0.277 -1.188,1.223 -0.283,0.536 -0.52,0.85 -0.527,0.696 -0.02,-0.473 1.511,-2.71 2.052,-3 0.764,-0.409 0.903,-0.05 0.336,0.872 -0.277,0.451 -0.705,1.593 -0.951,2.539 -0.84,3.223 -0.193,7.294 1.998,12.578 1.374,3.312 2.048,5.166 2.525,6.942 0.482,1.793 1.078,2.688 2.085,3.127 0.443,0.193 0.628,0.351 0.409,0.351 -0.219,0 -0.724,-0.178 -1.123,-0.394 z m 7.605,0.024 c 0.728,-0.196 1.359,-0.32 1.403,-0.277 0.146,0.144 -1.606,0.669 -2.17,0.651 -0.306,-0.01 0.039,-0.178 0.767,-0.373 z m 2.589,-0.954 c 1.036,-0.547 1.099,-1.036 0.133,-1.036 -1.487,0 -4.383,-2.021 -5.213,-3.638 -0.378,-0.737 -0.971,-0.766 -1.345,-0.067 -0.388,0.725 -2.167,1.588 -3.274,1.588 -0.695,0 -1.077,-0.195 -1.598,-0.814 -1.094,-1.3 -0.933,-2.233 0.638,-3.708 0.728,-0.683 1.323,-1.385 1.323,-1.56 0,-0.175 -0.717,-1.101 -1.594,-2.057 -1.527,-1.666 -3.706,-5.429 -3.692,-6.376 0.003,-0.238 0.276,0.222 0.606,1.023 0.709,1.72 2.332,4.121 4.006,5.927 0.662,0.713 1.203,1.349 1.203,1.412 0,0.063 -0.655,0.744 -1.455,1.513 -1.109,1.066 -1.455,1.581 -1.455,2.167 0,2.501 2.896,2.812 5.222,0.561 0.959,-0.928 0.895,-0.952 2.024,0.781 0.858,1.317 2.089,2.104 4.396,2.808 1.492,0.456 1.627,0.992 0.397,1.578 -1.304,0.622 -1.547,0.545 -0.322,-0.102 z M 30.692,64.313 c -0.295,-0.2 -0.212,-0.226 0.324,-0.101 l 0.721,0.167 -0.427,-0.855 c -0.331,-0.664 -0.436,-1.781 -0.469,-4.988 -0.027,-2.626 0.034,-3.747 0.167,-3.074 0.115,0.582 0.184,2.13 0.154,3.44 -0.063,2.729 0.198,4.462 0.741,4.912 0.207,0.172 0.376,0.417 0.376,0.544 0,0.317 -1.099,0.286 -1.587,-0.044 z m -1.999,-0.86 a 29.66,29.66 0 0 1 -2.341,-1.474 c -1.407,-0.988 -1.391,-0.888 -0.598,-3.872 0.232,-0.873 0.674,-3.364 0.982,-5.536 0.635,-4.476 1.478,-7.654 2.643,-9.962 0.959,-1.9 2.351,-3.502 3.432,-3.95 0.981,-0.406 1.022,-0.793 0.085,-0.793 -0.388,0 -0.632,-0.074 -0.542,-0.164 0.28,-0.28 2.082,0.174 1.974,0.498 -0.056,0.167 -0.463,0.397 -0.905,0.512 -1.146,0.297 -3.171,2.585 -4.099,4.632 -1.08,2.382 -1.725,5.034 -2.367,9.736 -0.298,2.183 -0.784,4.8 -1.08,5.817 l -0.537,1.848 1.005,0.869 c 0.553,0.478 1.638,1.179 2.411,1.557 1.315,0.644 1.677,0.906 1.207,0.878 -0.109,-0.007 -0.681,-0.274 -1.272,-0.595 z m 25.761,-4.522 c -1.934,-1.028 -3.97,-2.544 -5.241,-3.902 -0.669,-0.715 -2.06,-1.737 -3.175,-2.334 -2.343,-1.254 -2.295,-1.434 0.064,-0.243 0.9,0.454 2.355,1.508 3.234,2.341 1.717,1.628 4.393,3.525 5.805,4.115 0.842,0.352 0.9,0.335 1.664,-0.482 0.941,-1.007 1.735,-2.142 2.791,-3.987 0.427,-0.747 0.701,-1.12 0.609,-0.829 -0.475,1.49 -3.744,5.953 -4.361,5.953 -0.11,0 -0.735,-0.284 -1.388,-0.632 z M 28.377,58.507 c -0.826,-0.503 -1.145,-1.383 -0.62,-1.707 0.132,-0.082 0.182,0.074 0.111,0.345 -0.137,0.522 0.996,1.624 1.669,1.624 0.549,0 0.432,-0.81 -0.226,-1.57 -0.347,-0.401 -0.22,-0.333 0.31,0.166 0.761,0.716 0.846,0.907 0.555,1.257 -0.447,0.539 -0.761,0.519 -1.799,-0.114 z M 20.435,55.263 C 19.881,54.58 18.291,51.17 17.826,49.67 l -0.483,-1.558 0.877,-0.676 c 0.482,-0.372 2.298,-2.367 4.036,-4.434 3.251,-3.868 5.061,-5.504 7.121,-6.438 1.421,-0.645 3.166,-0.7 4.258,-0.136 0.772,0.399 0.789,0.396 0.518,-0.112 -0.397,-0.742 -1.48,-1.541 -2.583,-1.905 -1.12,-0.37 -2.672,-0.194 -4.751,0.537 -0.835,0.294 -1.388,0.403 -1.227,0.243 0.389,-0.389 3.694,-1.293 4.699,-1.286 1.732,0.013 4.371,1.763 4.371,2.898 v 0.547 l -1.048,-0.535 c -2.864,-1.461 -6.12,0.287 -10.504,5.641 -0.972,1.187 -2.579,2.993 -3.571,4.013 l -1.803,1.855 0.278,1.056 c 0.422,1.604 2.406,5.686 2.763,5.686 0.311,0 1.508,-2.42 3.44,-6.954 0.545,-1.278 1.033,-2.281 1.085,-2.229 0.122,0.122 -3.113,7.718 -3.769,8.851 -0.548,0.946 -0.701,1.02 -1.097,0.531 z m 9.898,-2.618 c -0.213,-2.033 -0.195,-4.281 0.044,-5.616 0.106,-0.595 0.19,0.71 0.201,3.109 l -0.028,4.134 c -0.025,0 -0.122,-0.732 -0.216,-1.626 z M 59.935,51.919 C 59.78,51.215 58.096,49.24 56.798,48.24 55.814,47.482 53.03,46.353 51.756,46.195 c -0.744,-0.092 -2.91,0.014 -4.813,0.236 -5.552,0.648 -8.309,-0.051 -10.209,-2.588 -0.919,-1.227 -1.512,-2.923 -1.149,-3.286 0.091,-0.091 0.545,0.268 1.009,0.798 0.992,1.132 1.775,1.574 3.225,1.821 1.024,0.174 1.03,0.181 0.185,0.213 -1.009,0.038 -2.255,-0.529 -3.291,-1.499 -0.935,-0.875 -1.079,-0.696 -0.491,0.613 0.692,1.543 2.374,2.935 4.178,3.46 1.293,0.376 2.04,0.409 4.84,0.212 1.821,-0.128 4.382,-0.229 5.692,-0.225 2.204,0.007 2.509,0.076 4.089,0.923 2.191,1.175 4.65,3.439 5.05,4.651 0.169,0.512 0.247,0.99 0.173,1.064 -0.074,0.074 -0.213,-0.228 -0.31,-0.669 z M 41.394,50.602 c -3.632,-1.768 -5.546,-3.918 -6.486,-7.284 -0.415,-1.487 -0.466,-1.556 -0.646,-0.872 -0.107,0.408 -0.128,1.48 -0.046,2.381 0.095,1.042 0.068,1.398 -0.073,0.977 -0.495,-1.473 -0.108,-5.556 0.527,-5.556 0.104,0 0.268,0.808 0.366,1.796 0.37,3.753 2.403,6.34 6.587,8.381 1.338,0.653 2.307,1.189 2.153,1.193 -0.154,0.004 -1.225,-0.454 -2.381,-1.017 z m -15.99,-5.137 c -0.007,-0.443 1.319,-2.779 2.445,-4.307 1.085,-1.472 3.328,-3.305 4.013,-3.28 0.157,0.006 -0.072,0.198 -0.508,0.427 -1.064,0.558 -2.905,2.345 -3.856,3.743 -0.426,0.626 -0.774,1.179 -0.774,1.23 0,0.051 -0.296,0.61 -0.658,1.244 -0.362,0.634 -0.66,1.058 -0.661,0.944 z m 5.309,-0.344 c 0.013,-0.308 0.075,-0.371 0.16,-0.16 0.076,0.191 0.067,0.419 -0.021,0.507 -0.088,0.088 -0.15,-0.068 -0.139,-0.347 z m 0.248,-1.058 c 0.002,-0.279 0.125,-0.686 0.273,-0.904 0.196,-0.29 0.221,-0.183 0.091,0.397 -0.218,0.973 -0.369,1.184 -0.364,0.507 z m 10.337,-0.737 c 0.061,-0.053 0.586,-0.17 1.169,-0.258 0.738,-0.112 0.898,-0.089 0.529,0.079 -0.508,0.23 -1.925,0.38 -1.698,0.18 z m 2.395,-0.556 c 0.239,-0.239 2.081,-0.94 2.081,-0.792 0,0.082 -0.413,0.322 -0.918,0.533 -0.921,0.385 -1.394,0.49 -1.163,0.26 z m 3.403,-1.716 c 1.224,-0.945 4.946,-2.656 6.382,-2.935 1.033,-0.2 1.898,-0.19 3.145,0.038 1.67,0.305 4.831,1.558 5.123,2.031 0.079,0.128 -0.551,-0.097 -1.4,-0.502 -2.101,-1.001 -4.595,-1.535 -6.344,-1.359 -1.026,0.103 -2.299,0.582 -4.498,1.69 -1.687,0.851 -2.77,1.317 -2.407,1.037 z m 15.495,-0.153 c -0.282,-0.214 -0.396,-0.388 -0.251,-0.388 0.145,0 0.405,0.143 0.58,0.318 0.848,0.848 1.038,-1.557 0.476,-6.006 l -0.134,-1.058 0.274,1.058 c 0.453,1.75 0.597,5.645 0.225,6.092 -0.397,0.478 -0.519,0.476 -1.169,-0.015 z M 37.125,40.726 c -0.506,-0.245 -1.022,-0.968 -0.815,-1.144 0.04,-0.034 0.762,-0.116 1.605,-0.183 0.85,-0.067 1.38,-0.025 1.191,0.095 -0.189,0.12 -0.789,0.219 -1.334,0.221 -1.142,0.005 -1.306,0.427 -0.314,0.804 1.186,0.451 2.851,0.293 4.23,-0.4 2.034,-1.023 3.613,-2.545 6.886,-6.638 1.662,-2.079 3.375,-4.032 3.807,-4.339 0.476,-0.339 1.334,-0.602 2.183,-0.67 l 1.398,-0.112 -1.272,0.236 c -1.751,0.325 -2.685,1.119 -5.705,4.854 -3.132,3.872 -5.677,6.359 -7.226,7.063 -1.254,0.569 -3.667,0.68 -4.632,0.214 z M 16.411,38.727 c 0.003,-0.546 0.179,-2.123 0.392,-3.506 l 0.392,-2.756 c 0.003,-0.133 0.073,-0.174 0.157,-0.09 0.084,0.084 -0.047,1.425 -0.291,2.98 -0.244,1.555 -0.393,3.173 -0.33,3.596 0.063,0.423 0.014,0.769 -0.106,0.769 -0.12,0 -0.217,-0.446 -0.214,-0.992 z m 2.152,0.364 a 25.44,25.44 0 0 0 3.175,-1.674 c 1.704,-1.074 3.658,-2.135 3.378,-1.834 -0.256,0.275 -4.517,2.824 -5.853,3.501 -0.688,0.349 -1.464,0.631 -1.723,0.628 -0.259,-0.003 0.201,-0.283 1.024,-0.621 z m 21.523,-0.307 c 1.185,-0.871 2.612,-2.458 3.5,-3.894 1.165,-1.884 1.418,-1.989 0.418,-0.173 -0.841,1.527 -3.542,4.477 -4.087,4.464 -0.231,-0.005 -0.17,-0.148 0.169,-0.397 z m -3.572,-0.239 c 0,-0.064 0.366,-0.51 0.813,-0.992 0.926,-0.997 1.765,-2.506 2.255,-4.051 0.185,-0.582 0.342,-0.82 0.351,-0.529 0.019,0.682 -1.089,3.063 -1.954,4.196 -0.865,1.133 -0.847,1.332 0.091,0.847 2.169,-1.122 4.085,-5.154 4.925,-10.365 l 1.653,-11.342 c 0.074,-0.579 0.321,-1.337 0.549,-1.685 0.377,-0.575 0.546,-0.619 1.851,-0.484 2.256,0.233 5.974,2.214 8.392,4.473 1.97,1.839 2.689,2.754 2.397,3.046 -0.082,0.082 -0.896,-0.042 -1.807,-0.277 l -2.187,-0.539 c -0.42,-0.089 -0.392,-0.118 0.132,-0.14 0.364,-0.015 1.311,0.145 2.104,0.356 0.793,0.211 1.485,0.342 1.537,0.29 0.052,-0.052 -0.717,-0.92 -1.707,-1.93 -2.546,-2.596 -7.141,-5.101 -9.356,-5.101 -0.637,0 -0.859,0.165 -1.157,0.86 -0.371,0.863 -1.035,4.358 -1.345,7.078 -0.719,6.306 -1.794,10.769 -3.151,13.084 -0.903,1.541 -2.896,3.32 -3.72,3.32 -0.367,0 -0.667,-0.052 -0.667,-0.116 z m -0.117,-2.067 a 51.63,51.63 0 0 0 0.407,-2.183 c 0.207,-1.26 0.212,-1.244 0.099,0.345 -0.07,0.982 -0.019,1.606 0.125,1.517 0.532,-0.329 0.877,-3.058 0.758,-5.998 -0.086,-2.127 -0.05,-2.736 0.123,-2.081 0.134,0.509 0.198,2.236 0.141,3.836 -0.08,2.255 -0.231,3.194 -0.672,4.167 -0.665,1.467 -1.271,1.712 -0.981,0.397 z m -1.4,-0.943 a 7.38,7.38 0 0 0 -3.674,-3.913 c -1.366,-0.668 -1.632,-0.705 -4.546,-0.621 l -5.928,0.102 c -2.567,0.012 -2.857,0.063 -3.091,0.544 -0.19,0.389 -0.263,0.421 -0.277,0.119 -0.01,-0.227 0.131,-0.613 0.313,-0.859 0.284,-0.383 0.482,-0.404 1.389,-0.151 0.791,0.221 1.945,0.213 4.566,-0.031 4.03,-0.376 5.777,-0.229 7.62,0.64 1.554,0.733 2.301,1.409 3.304,2.991 l 0.745,1.175 0.108,-0.883 c 0.07,-0.569 0.123,-0.342 0.151,0.639 0.023,0.837 -10e-4,1.521 -0.055,1.521 -0.054,0 -0.335,-0.573 -0.626,-1.274 z m -0.183,-3.163 c -0.322,-0.79 -1.151,-1.882 -2.249,-2.96 -0.957,-0.939 -1.371,-1.45 -0.92,-1.135 1.665,1.163 4.016,4.355 3.76,5.107 -0.045,0.132 -0.311,-0.323 -0.591,-1.012 z m 28.2,0.732 c 0,-0.364 0.06,-0.513 0.133,-0.331 0.073,0.182 0.073,0.48 0,0.661 -0.073,0.181 -0.133,0.033 -0.133,-0.331 z M 44.741,32.972 c 0,-0.146 0.346,-0.919 0.769,-1.72 0.423,-0.801 0.769,-1.336 0.769,-1.191 0,0.145 -0.346,0.919 -0.769,1.72 -0.423,0.801 -0.769,1.336 -0.769,1.191 z m -8.185,-0.926 c 0,-0.364 0.06,-0.513 0.133,-0.331 0.073,0.182 0.073,0.48 0,0.661 -0.073,0.181 -0.133,0.033 -0.133,-0.331 z m 3.448,-0.265 c -0.006,-0.364 0.085,-1.197 0.201,-1.852 0.159,-0.893 0.216,-0.992 0.23,-0.397 0.01,0.437 -0.081,1.27 -0.201,1.852 -0.137,0.662 -0.223,0.811 -0.23,0.397 z m 22.572,-0.288 c -0.314,-1.07 -1.809,-1.9 -4.763,-2.646 -1.019,-0.257 -1.614,-0.472 -1.323,-0.477 0.923,-0.018 3.399,0.666 4.56,1.258 1.222,0.623 2.016,1.603 1.878,2.315 -0.055,0.282 -0.188,0.113 -0.353,-0.45 z M 36.281,30.942 c -0.017,-0.243 -0.099,-0.659 -0.183,-0.926 -0.144,-0.459 -0.136,-0.46 0.15,-0.013 0.166,0.259 0.249,0.676 0.183,0.926 -0.108,0.41 -0.122,0.411 -0.15,0.013 z m 10.032,-1.411 c 0,-0.146 0.115,-0.443 0.256,-0.661 0.141,-0.218 0.256,-0.278 0.256,-0.132 0,0.146 -0.115,0.443 -0.256,0.661 -0.141,0.218 -0.256,0.278 -0.256,0.132 z M 34.957,27.657 c -0.564,-1.087 -1.884,-2.775 -3.631,-4.64 -1.51,-1.612 -3.123,-3.515 -3.585,-4.228 -0.462,-0.713 -0.966,-1.296 -1.12,-1.296 -0.363,0 -3.278,3.079 -4.27,4.51 l -0.769,1.11 0.743,0.592 c 0.84,0.67 2.863,1.638 5.59,2.675 1.019,0.387 1.971,0.826 2.117,0.975 0.178,0.182 0.135,0.22 -0.132,0.114 l -2.117,-0.835 c -2.612,-1.031 -5.435,-2.483 -5.964,-3.067 -0.406,-0.448 -0.425,-0.613 -0.132,-1.159 0.585,-1.094 4.529,-5.179 4.999,-5.179 0.248,0 0.681,0.443 0.971,0.992 0.29,0.549 1.427,1.944 2.531,3.109 2.725,2.874 4.347,4.926 5.156,6.522 0.372,0.735 0.637,1.377 0.588,1.426 -0.049,0.049 -0.488,-0.679 -0.976,-1.619 z m 12.039,0.022 c 0.218,-0.973 0.369,-1.184 0.364,-0.507 -0.002,0.279 -0.125,0.686 -0.273,0.904 -0.196,0.29 -0.221,0.183 -0.091,-0.397 z M 36.926,25.493 C 36.663,24.658 35.805,22.5 35.019,20.697 34.233,18.894 33.635,17.374 33.69,17.319 c 0.118,-0.118 3.153,6.981 3.618,8.46 0.175,0.555 0.267,1.06 0.206,1.121 -0.061,0.061 -0.326,-0.572 -0.589,-1.407 z m 3.373,0.202 c 0,-0.8 0.05,-1.128 0.11,-0.728 0.06,0.4 0.061,1.055 0,1.455 -0.061,0.4 -0.11,0.073 -0.11,-0.728 z m 6.403,-0.353 c -0.786,-1.62 -0.787,-1.763 -0.002,-0.499 0.386,0.623 0.664,1.235 0.617,1.361 -0.047,0.126 -0.324,-0.262 -0.615,-0.862 z m -6.675,-2.293 c 0,-0.655 0.052,-0.923 0.115,-0.595 a 3.77,3.77 0 0 1 0,1.191 c -0.063,0.327 -0.115,0.06 -0.115,-0.595 z m 5.855,-0.585 c 0.022,-0.93 0.148,-1.186 0.75,-1.523 0.655,-0.366 0.843,-0.362 1.981,0.047 1.112,0.4 1.325,0.407 1.847,0.065 0.324,-0.213 0.862,-0.376 1.194,-0.364 0.535,0.02 0.519,0.048 -0.14,0.246 -0.409,0.123 -0.905,0.357 -1.101,0.519 -0.266,0.221 -0.701,0.183 -1.718,-0.149 -1.853,-0.606 -2.58,-0.285 -2.73,1.202 l -0.108,1.073 0.026,-1.118 z M 39.757,20.8 c 0.003,-0.582 0.057,-0.789 0.12,-0.46 0.063,0.329 0.061,0.805 -0.005,1.058 -0.066,0.253 -0.118,-0.016 -0.115,-0.598 z M 52.39,20.659 c 0,-0.141 0.179,-0.256 0.397,-0.256 0.218,0 0.397,0.047 0.397,0.104 0,0.057 -0.179,0.173 -0.397,0.256 C 52.569,20.846 52.39,20.8 52.39,20.659 Z M 39.47,18.381 c -0.042,-1.024 -0.122,-1.132 -1.235,-1.655 -1.441,-0.677 -1.583,-0.955 -0.198,-0.388 1.452,0.595 1.705,0.932 1.584,2.108 l -0.106,1.031 z m -6.489,-2.546 c -0.641,-1.679 -0.566,-2.018 0.557,-2.506 1.27,-0.552 7.227,-0.662 7.406,-0.137 0.062,0.182 -0.067,0.331 -0.287,0.331 -0.22,0 -0.634,0.298 -0.92,0.661 -0.381,0.484 -0.773,0.661 -1.461,0.661 -0.617,0 -1.034,0.159 -1.211,0.463 -0.148,0.255 -0.273,0.338 -0.278,0.185 -0.015,-0.513 0.621,-0.913 1.452,-0.913 0.741,0 1.979,-0.936 1.979,-1.495 0,-0.331 -5.432,0.112 -6.416,0.524 -1.128,0.472 -1.136,0.498 -0.592,2.037 0.527,1.493 0.331,1.653 -0.229,0.187 z"
       fill="#f49661"
       id="path932" />
    <path
       d="m 74.781,0.374 c 0.262,0.265 0.611,0.244 0.945,0 z m 2.094,0 c -0.045,0.148 0.038,0.186 0.265,0.186 0.153,0 0.251,-0.054 0.304,-0.186 z m 0.648,0.568 -1.389,0.14 c -1.326,0.133 -1.389,0.174 -1.389,0.911 0,0.456 0.163,0.821 0.397,0.893 0.32,0.098 0.333,0.054 0.066,-0.229 -0.449,-0.476 -0.417,-1.039 0.059,-1.039 0.215,0 0.575,0.357 0.8,0.794 0.45,0.871 0.437,0.863 1.037,0.633 0.276,-0.106 0.419,-0.49 0.419,-1.132 z m -0.774,0.676 c 0.37,0 0.521,0.144 0.463,0.441 C 77.057,2.856 76.2,2.781 76.2,1.971 76.2,1.777 76.447,1.618 76.749,1.618 Z M 75.671,3.47 c -1.058,0 -1.852,0.113 -1.852,0.265 0,0.146 0.291,0.265 0.646,0.265 0.778,0 0.966,0.248 0.766,1.012 -0.102,0.392 -0.373,0.587 -0.847,0.613 -0.508,0.027 -0.41,0.089 0.362,0.227 1.598,0.286 2.466,0.292 2.635,0.017 C 77.465,5.733 77.152,5.584 76.686,5.538 76.017,5.472 75.798,5.302 75.646,4.727 75.46,4.024 75.488,3.999 76.488,3.999 c 0.569,0 1.036,-0.119 1.036,-0.265 0,-0.151 -0.794,-0.265 -1.852,-0.265 z m -0.013,4.31 c -0.117,10e-4 -0.237,0.012 -0.361,0.037 -2.08,0.413 -2.31,3.321 -0.325,4.122 0.881,0.355 1.147,0.307 1.902,-0.342 1.474,-1.268 0.534,-3.825 -1.216,-3.817 z m -0.027,0.453 c 0.414,0 0.95,0.218 1.191,0.484 0.581,0.642 0.557,1.973 -0.046,2.518 -0.506,0.458 -1.541,0.572 -2.079,0.23 -0.309,-0.197 -0.876,-1.443 -0.876,-1.926 0,-0.519 1.091,-1.306 1.811,-1.306 z m 0.855,0.808 c -0.106,0.021 -0.166,0.225 -0.095,0.597 0.164,0.856 -0.504,1.375 -1.255,0.973 -0.437,-0.234 -0.531,-0.458 -0.403,-0.967 0.107,-0.427 0.068,-0.602 -0.109,-0.492 -0.374,0.231 -0.348,1.284 0.042,1.674 0.912,0.912 2.58,-0.061 2.193,-1.28 C 76.744,9.183 76.591,9.02 76.485,9.041 Z M 38.63,12.496 c -0.312,0 -0.623,0.015 -0.86,0.044 -0.473,0.059 -0.086,0.106 0.86,0.106 0.946,0 1.333,-0.048 0.86,-0.106 -0.236,-0.029 -0.548,-0.044 -0.86,-0.044 z m 2.282,0.36 c -0.08,0.006 -0.064,0.094 0.003,0.269 0.093,0.243 0.003,0.4 -0.228,0.4 -0.21,0 -0.71,0.369 -1.112,0.82 -0.627,0.704 -0.655,0.795 -0.195,0.65 0.508,-0.161 2.827,0.405 3.811,0.931 0.253,0.135 0.64,0.245 0.86,0.245 0.226,0 0.42,0.26 0.445,0.595 0.024,0.327 0.092,0.132 0.15,-0.434 0.058,-0.566 0.279,-1.293 0.491,-1.616 0.378,-0.576 0.354,-0.593 -1.275,-0.929 -0.913,-0.188 -1.983,-0.504 -2.38,-0.702 -0.315,-0.157 -0.49,-0.235 -0.57,-0.229 z m 5.634,0.966 c -0.092,-0.004 -0.196,0.013 -0.292,0.051 -0.211,0.084 -0.149,0.147 0.16,0.16 0.279,0.011 0.435,-0.051 0.347,-0.139 -0.044,-0.044 -0.123,-0.069 -0.215,-0.072 z M 32.4,14.187 c -0.021,0.004 -0.04,0.028 -0.055,0.074 -0.062,0.187 -0.046,0.514 0.036,0.728 0.244,0.635 0.367,0.442 0.217,-0.34 -0.057,-0.3 -0.135,-0.473 -0.197,-0.463 z M 31.94,14.4 c -0.059,-0.015 -0.158,0.048 -0.32,0.183 -0.218,0.181 -0.397,0.374 -0.397,0.429 0,0.055 0.179,0.1 0.397,0.1 0.218,0 0.397,-0.193 0.397,-0.429 0,-0.176 -0.018,-0.268 -0.076,-0.283 z m -4.973,2.597 c -0.092,-0.004 -0.196,0.013 -0.292,0.051 -0.211,0.084 -0.149,0.147 0.16,0.16 0.279,0.011 0.435,-0.051 0.347,-0.139 C 27.138,17.025 27.059,17 26.967,16.997 Z m 17.317,0.588 c -0.04,-0.006 -0.068,0.091 -0.076,0.283 -0.011,0.279 0.051,0.435 0.139,0.347 0.088,-0.088 0.098,-0.316 0.021,-0.507 -0.032,-0.079 -0.06,-0.12 -0.084,-0.124 z m 10.619,0.305 0.912,0.992 0.992,0.992 c 0.202,0 0.012,-0.224 -0.912,-1.072 z m -15.117,1.282 c -0.04,-0.006 -0.068,0.091 -0.076,0.283 -0.011,0.279 0.051,0.435 0.139,0.347 0.088,-0.088 0.098,-0.316 0.021,-0.507 -0.032,-0.079 -0.06,-0.12 -0.084,-0.124 z m 4.233,0.265 c -0.04,-0.006 -0.068,0.091 -0.076,0.283 -0.011,0.279 0.051,0.435 0.139,0.347 0.088,-0.088 0.098,-0.316 0.021,-0.507 -0.032,-0.079 -0.06,-0.12 -0.084,-0.124 z M 28.577,19.61 c -0.014,0.014 0.066,0.121 0.231,0.331 0.346,0.441 0.563,0.581 0.563,0.363 0,-0.055 -0.208,-0.263 -0.463,-0.463 -0.21,-0.165 -0.317,-0.245 -0.331,-0.231 z m -5.342,0.794 c -0.073,0 -0.348,0.238 -0.611,0.529 -0.263,0.291 -0.42,0.529 -0.347,0.529 0.073,0 0.348,-0.238 0.611,-0.529 0.263,-0.291 0.42,-0.529 0.347,-0.529 z m 29.612,0.446 c -0.922,10e-4 -1.711,0.15 -2.165,0.447 -0.394,0.258 -0.915,0.401 -1.158,0.317 -0.296,-0.102 -0.248,0.012 0.145,0.347 0.568,0.483 1.801,3.155 1.565,3.391 -0.064,0.064 0.044,0.427 0.241,0.807 0.197,0.38 0.294,0.793 0.217,0.919 -0.077,0.126 -0.003,0.397 0.167,0.602 0.17,0.205 0.232,0.646 0.138,0.981 -0.133,0.473 -0.11,0.52 0.106,0.211 0.216,-0.309 0.278,-0.321 0.282,-0.034 0.004,0.287 0.084,0.297 0.391,0.042 0.606,-0.503 3.404,-0.646 5.233,-0.269 1.663,0.343 3.988,1.34 4.298,1.843 0.092,0.148 0.225,0.27 0.297,0.27 0.072,0 -0.152,-0.387 -0.498,-0.86 -0.346,-0.473 -0.963,-1.753 -1.373,-2.844 -0.41,-1.091 -1.145,-2.655 -1.635,-3.474 -0.49,-0.819 -0.89,-1.676 -0.89,-1.903 0,-0.227 -0.118,-0.485 -0.261,-0.574 -0.15,-0.093 -0.194,0.014 -0.104,0.249 0.203,0.528 -0.222,0.523 -2.034,-0.022 -0.986,-0.297 -2.041,-0.445 -2.964,-0.444 z m -5.485,0.117 a 0.92,0.92 0 0 0 -0.331,0.055 c -0.182,0.073 -0.033,0.133 0.331,0.133 0.364,0 0.513,-0.06 0.331,-0.133 a 0.92,0.92 0 0 0 -0.331,-0.055 z m 1.301,0.263 c -0.092,-0.004 -0.196,0.013 -0.292,0.051 -0.211,0.084 -0.149,0.147 0.16,0.16 0.279,0.011 0.435,-0.051 0.347,-0.139 -0.044,-0.044 -0.123,-0.069 -0.215,-0.072 z m -8.612,0.059 c -0.04,-0.006 -0.068,0.091 -0.076,0.283 -0.011,0.279 0.051,0.435 0.139,0.347 0.088,-0.088 0.098,-0.316 0.021,-0.507 -0.032,-0.079 -0.06,-0.12 -0.084,-0.124 z m 3.731,0.031 c -0.048,-0.018 -0.082,0.134 -0.082,0.407 0,0.364 0.06,0.513 0.133,0.331 0.073,-0.182 0.073,-0.48 0,-0.661 -0.018,-0.045 -0.036,-0.07 -0.052,-0.076 z m -22.349,1.994 c -0.014,0.014 0.066,0.121 0.231,0.331 0.2,0.255 0.408,0.463 0.463,0.463 0.218,0 0.077,-0.217 -0.363,-0.563 -0.21,-0.165 -0.317,-0.245 -0.331,-0.231 z m 18.909,0.122 c -0.048,-0.018 -0.082,0.134 -0.082,0.407 0,0.364 0.06,0.513 0.133,0.331 0.073,-0.182 0.073,-0.48 0,-0.661 -0.018,-0.045 -0.036,-0.07 -0.052,-0.076 z m -8.193,0.01 0.504,0.595 c 0.277,0.327 0.545,0.595 0.595,0.595 0.212,0 0.056,-0.213 -0.504,-0.687 z M 43.49,23.67 c -0.04,-0.006 -0.068,0.091 -0.076,0.283 -0.011,0.279 0.051,0.435 0.139,0.347 0.088,-0.088 0.098,-0.316 0.021,-0.507 -0.032,-0.079 -0.06,-0.12 -0.084,-0.124 z m 3.996,2.677 c -0.048,-0.018 -0.082,0.134 -0.082,0.407 0,0.364 0.06,0.513 0.133,0.331 0.073,-0.182 0.073,-0.48 0,-0.661 -0.018,-0.045 -0.036,-0.07 -0.052,-0.076 z m -6.86,0.493 c -0.033,0.003 -0.056,0.404 -0.056,1.104 -10e-4,1.019 0.046,1.468 0.104,0.998 0.058,-0.47 0.059,-1.303 0.002,-1.852 -0.018,-0.172 -0.035,-0.252 -0.05,-0.251 z m -2.957,1.593 c -0.04,-0.006 -0.068,0.091 -0.076,0.283 -0.011,0.279 0.051,0.435 0.139,0.347 0.088,-0.088 0.098,-0.316 0.021,-0.507 -0.032,-0.079 -0.06,-0.12 -0.084,-0.124 z M 24.85,30.491 c -0.092,-0.004 -0.196,0.013 -0.292,0.051 -0.211,0.084 -0.149,0.147 0.16,0.16 0.279,0.011 0.435,-0.051 0.347,-0.139 -0.044,-0.044 -0.123,-0.069 -0.215,-0.072 z m 25.951,0.232 c -0.014,-0.014 -0.121,0.066 -0.331,0.231 -0.255,0.2 -0.463,0.408 -0.463,0.463 0,0.218 0.217,0.077 0.563,-0.363 0.165,-0.21 0.245,-0.317 0.231,-0.331 z m -29.665,0.029 c -0.288,0 -0.585,0.014 -0.823,0.043 -0.476,0.059 -0.15,0.108 0.723,0.11 0.873,0.002 1.262,-0.047 0.865,-0.107 -0.199,-0.03 -0.477,-0.046 -0.764,-0.046 z m 19.179,0.062 c -0.04,-0.006 -0.068,0.091 -0.076,0.283 -0.011,0.279 0.051,0.435 0.139,0.347 0.088,-0.088 0.098,-0.316 0.021,-0.507 -0.032,-0.079 -0.06,-0.12 -0.084,-0.124 z m 1.852,0 c -0.04,-0.006 -0.068,0.091 -0.076,0.283 -0.011,0.279 0.051,0.435 0.139,0.347 0.088,-0.088 0.098,-0.316 0.021,-0.507 -0.032,-0.079 -0.06,-0.12 -0.084,-0.124 z m -9.622,0.967 c -0.014,0.014 0.066,0.121 0.231,0.331 0.346,0.441 0.563,0.581 0.563,0.363 0,-0.055 -0.208,-0.263 -0.463,-0.463 -0.21,-0.165 -0.317,-0.245 -0.331,-0.231 z m 4.33,0.621 c -0.04,-0.006 -0.068,0.091 -0.076,0.283 -0.011,0.279 0.051,0.435 0.139,0.347 0.088,-0.088 0.098,-0.316 0.021,-0.507 -0.032,-0.079 -0.06,-0.12 -0.084,-0.124 z m -3.272,0.438 c -0.014,0.014 0.066,0.121 0.231,0.331 0.346,0.441 0.563,0.581 0.563,0.363 0,-0.055 -0.208,-0.263 -0.463,-0.463 -0.21,-0.165 -0.317,-0.245 -0.331,-0.231 z m 4.065,0.621 c -0.04,-0.006 -0.068,0.091 -0.076,0.283 -0.011,0.279 0.051,0.435 0.139,0.347 0.088,-0.088 0.098,-0.316 0.021,-0.507 -0.032,-0.079 -0.06,-0.12 -0.084,-0.124 z m -7.505,0.733 c -0.216,0 -0.432,0.016 -0.595,0.048 -0.327,0.063 -0.06,0.115 0.595,0.115 0.655,0 0.923,-0.052 0.595,-0.115 -0.164,-0.032 -0.38,-0.048 -0.595,-0.048 z m 17.463,0.499 c -0.014,-0.014 -0.121,0.066 -0.331,0.231 -0.255,0.2 -0.463,0.408 -0.463,0.463 0,0.218 0.217,0.077 0.563,-0.363 0.165,-0.21 0.245,-0.317 0.231,-0.331 z M 35.024,34.72 c -0.06,-0.021 -0.038,0.079 0.052,0.315 0.099,0.261 0.247,0.408 0.329,0.327 0.082,-0.081 0,-0.295 -0.18,-0.474 -0.098,-0.097 -0.164,-0.154 -0.2,-0.167 z m 1.863,0.575 c -0.081,0.004 -0.109,0.147 -0.109,0.456 0,0.494 0.07,0.565 0.317,0.318 0.247,-0.247 0.247,-0.388 0,-0.635 -0.093,-0.093 -0.16,-0.141 -0.209,-0.138 z m -3.161,0.456 c -0.212,0 -0.003,0.652 0.274,0.856 0.413,0.303 0.437,0.243 0.132,-0.327 -0.156,-0.291 -0.339,-0.529 -0.406,-0.529 z m -1.975,0.033 c -0.168,0 -0.336,0.016 -0.463,0.05 -0.255,0.067 -0.046,0.121 0.463,0.121 0.509,0 0.718,-0.054 0.463,-0.121 -0.127,-0.033 -0.295,-0.05 -0.463,-0.05 z m 14.797,0.232 c -0.073,0 -0.719,0.595 -1.436,1.323 -0.717,0.728 -1.244,1.323 -1.171,1.323 0.073,0 0.719,-0.595 1.436,-1.323 0.717,-0.728 1.244,-1.323 1.171,-1.323 z m -6.463,0.132 -0.86,0.777 c -0.473,0.427 -0.86,0.814 -0.86,0.86 0,0.204 0.218,0.024 0.943,-0.777 z m 3.043,0.132 c -0.014,-0.014 -0.121,0.066 -0.331,0.231 -0.255,0.2 -0.463,0.408 -0.463,0.463 0,0.218 0.217,0.077 0.563,-0.363 0.165,-0.21 0.245,-0.317 0.231,-0.331 z M 29.425,36.3 c -0.103,-0.003 -0.257,0.077 -0.391,0.212 -0.259,0.261 -0.229,0.291 0.148,0.148 0.261,-0.099 0.408,-0.247 0.327,-0.329 a 0.12,0.12 0 0 0 -0.084,-0.032 z m -12.924,0.072 c -0.04,-0.006 -0.068,0.091 -0.076,0.283 -0.011,0.279 0.051,0.435 0.139,0.347 0.088,-0.088 0.098,-0.316 0.021,-0.507 -0.032,-0.079 -0.06,-0.12 -0.084,-0.124 z m 22.128,0.173 c -0.014,-0.014 -0.121,0.066 -0.331,0.231 -0.255,0.2 -0.463,0.408 -0.463,0.463 0,0.218 0.217,0.077 0.563,-0.363 0.165,-0.21 0.245,-0.317 0.231,-0.331 z m -0.96,1.17 c -0.18,0.029 -0.363,0.2 -0.363,0.424 0,0.132 0.178,0.172 0.395,0.089 0.217,-0.083 0.328,-0.26 0.246,-0.393 -0.064,-0.104 -0.171,-0.138 -0.279,-0.12 z m -10.682,0.152 c -0.014,-0.014 -0.121,0.066 -0.331,0.231 -0.255,0.2 -0.463,0.408 -0.463,0.463 0,0.218 0.217,0.077 0.563,-0.363 0.165,-0.21 0.245,-0.317 0.231,-0.331 z m 5.755,0.036 c -0.659,0.028 -0.715,0.064 -0.243,0.153 0.587,0.112 0.594,0.135 0.132,0.497 -0.434,0.34 -0.409,0.348 0.243,0.069 0.982,-0.42 0.918,-0.763 -0.132,-0.719 z m 22.367,0.399 a 7.48,7.48 0 0 0 -1.134,0.081 c -0.8,0.116 -1.194,0.226 -0.874,0.244 0.614,0.035 0.622,0.158 0.235,3.919 -0.053,0.513 -0.385,1.118 -0.849,1.543 -0.419,0.385 -0.583,0.607 -0.364,0.495 0.328,-0.169 0.34,-0.134 0.068,0.202 -0.181,0.223 -0.25,0.484 -0.154,0.58 0.096,0.096 -0.471,0.191 -1.259,0.211 -1.346,0.035 -1.312,0.049 0.551,0.229 1.49,0.145 2.41,0.415 3.692,1.087 2.036,1.067 4.71,3.458 4.954,4.43 0.096,0.382 0.224,0.545 0.285,0.362 0.061,-0.183 -0.134,-0.748 -0.433,-1.256 -0.299,-0.508 -0.481,-1.088 -0.403,-1.291 a 0.49,0.49 0 0 0 -0.181,-0.569 c -0.2,-0.123 -0.256,-0.09 -0.146,0.087 0.098,0.158 0.067,0.355 -0.068,0.439 -0.135,0.084 -0.215,-0.057 -0.177,-0.312 0.038,-0.255 0.128,-0.405 0.201,-0.332 0.073,0.073 0.327,-0.029 0.565,-0.226 0.327,-0.271 0.366,-0.481 0.163,-0.86 -0.159,-0.296 -0.167,-0.501 -0.021,-0.501 0.136,0 0.223,-0.353 0.193,-0.785 -0.031,-0.446 0.095,-0.843 0.291,-0.918 0.19,-0.073 0.343,-0.285 0.341,-0.472 -0.003,-0.237 -0.081,-0.22 -0.26,0.058 -0.219,0.339 -0.257,0.328 -0.26,-0.07 -0.002,-0.257 0.142,-0.7 0.32,-0.985 0.269,-0.43 0.247,-0.577 -0.127,-0.856 -0.323,-0.241 -0.379,-0.45 -0.196,-0.734 0.17,-0.264 0.257,-0.286 0.259,-0.066 0.002,0.182 0.136,0.331 0.297,0.331 0.161,0 0.222,-0.184 0.135,-0.41 -0.09,-0.235 -0.046,-0.342 0.104,-0.249 0.15,0.093 0.273,-0.165 0.288,-0.582 l 0.026,-0.743 0.202,0.661 c 0.177,0.579 0.226,0.603 0.402,0.189 0.19,-0.448 0.237,-0.449 0.897,-0.02 0.565,0.368 0.632,0.375 0.357,0.039 -0.543,-0.663 -4.036,-2.254 -5.892,-2.684 -0.75,-0.174 -1.398,-0.26 -2.029,-0.264 z M 39.82,39.198 c -0.146,0 -0.443,0.115 -0.661,0.256 -0.218,0.141 -0.278,0.256 -0.132,0.256 0.146,0 0.443,-0.115 0.661,-0.256 0.218,-0.141 0.278,-0.256 0.132,-0.256 z m -22.886,0.555 a 0.92,0.92 0 0 0 -0.331,0.055 c -0.182,0.073 -0.033,0.133 0.331,0.133 0.364,0 0.513,-0.06 0.331,-0.133 a 0.92,0.92 0 0 0 -0.331,-0.055 z m 20.425,0.004 c -0.59,0.023 -0.748,0.236 -0.405,0.58 0.26,0.26 0.408,0.215 0.232,-0.07 -0.084,-0.136 0.177,-0.296 0.579,-0.357 0.687,-0.104 0.679,-0.113 -0.128,-0.15 l -0.279,-0.002 z m -13.066,0.756 c -0.073,0 -0.348,0.238 -0.611,0.529 -0.263,0.291 -0.42,0.529 -0.347,0.529 0.073,0 0.348,-0.238 0.611,-0.529 0.263,-0.291 0.42,-0.529 0.347,-0.529 z m 8.788,0.017 c -0.155,0.029 -0.361,0.181 -0.569,0.446 -0.321,0.41 -0.315,0.425 0.058,0.135 0.232,-0.181 0.5,-0.25 0.595,-0.155 0.095,0.095 0.174,0.035 0.174,-0.135 0,-0.226 -0.103,-0.32 -0.258,-0.291 z m 2.792,0.798 c -0.169,0.012 -0.157,0.073 0.031,0.149 0.174,0.071 0.252,0.329 0.174,0.574 -0.105,0.328 -0.077,0.356 0.104,0.103 0.198,-0.276 0.313,-0.263 0.587,0.066 0.187,0.225 0.405,0.409 0.486,0.409 0.081,0 -0.134,-0.298 -0.475,-0.661 -0.341,-0.363 -0.749,-0.652 -0.906,-0.64 z m 10.654,0.328 c -0.081,-0.004 -0.269,0.063 -0.487,0.18 -0.291,0.156 -0.529,0.343 -0.529,0.415 0,0.072 0.238,0.005 0.529,-0.151 0.291,-0.156 0.529,-0.343 0.529,-0.415 0,-0.018 -0.015,-0.028 -0.042,-0.029 z M 34.61,41.889 c -0.046,10e-4 -0.124,0.075 -0.212,0.212 -0.141,0.218 -0.256,0.516 -0.256,0.661 0,0.145 0.115,0.086 0.256,-0.132 0.141,-0.218 0.256,-0.516 0.256,-0.661 0,-0.055 -0.016,-0.08 -0.044,-0.08 z m -11.589,0.212 c -0.014,-0.014 -0.121,0.066 -0.331,0.231 -0.255,0.2 -0.463,0.408 -0.463,0.463 0,0.218 0.217,0.077 0.563,-0.363 0.165,-0.21 0.245,-0.317 0.231,-0.331 z m 4.058,0.63 c -0.024,-0.001 -0.055,0.01 -0.093,0.034 -0.144,0.089 -0.261,0.273 -0.261,0.41 0,0.381 0.189,0.297 0.365,-0.161 0.068,-0.177 0.06,-0.281 -0.011,-0.283 z m 10.726,0.02 c -0.125,-0.019 -0.167,0.034 -0.098,0.147 0.089,0.144 0.273,0.261 0.41,0.261 0.381,0 0.297,-0.189 -0.162,-0.365 -0.059,-0.023 -0.109,-0.037 -0.151,-0.043 z m 2.909,0.703 a 4.76,4.76 0 0 0 -0.69,0.045 c -0.402,0.061 -0.136,0.112 0.592,0.114 0.728,0.002 1.057,-0.048 0.731,-0.111 a 3.65,3.65 0 0 0 -0.633,-0.049 z m 20.473,0.072 c -0.016,0.003 -0.033,0.01 -0.05,0.02 -0.136,0.084 -0.231,0.381 -0.21,0.659 0.05,0.659 0.457,0.407 0.457,-0.283 0,-0.255 -0.085,-0.416 -0.198,-0.396 z m -39.49,0.163 c -0.014,-0.014 -0.121,0.066 -0.331,0.231 -0.255,0.2 -0.463,0.408 -0.463,0.463 0,0.218 0.217,0.077 0.563,-0.363 0.165,-0.21 0.245,-0.317 0.231,-0.331 z m -1.616,1.852 c -0.073,0 -0.536,0.417 -1.03,0.926 -0.494,0.509 -0.838,0.926 -0.765,0.926 0.073,0 0.536,-0.417 1.03,-0.926 0.494,-0.509 0.838,-0.926 0.765,-0.926 z m 28.074,0.299 a 0.92,0.92 0 0 0 -0.331,0.055 c -0.182,0.073 -0.033,0.133 0.331,0.133 0.364,0 0.513,-0.06 0.331,-0.133 A 0.92,0.92 0 0 0 48.155,45.84 Z m -6.35,0.264 a 0.92,0.92 0 0 0 -0.331,0.055 c -0.182,0.073 -0.033,0.133 0.331,0.133 0.364,0 0.513,-0.06 0.331,-0.133 a 0.92,0.92 0 0 0 -0.331,-0.055 z m 3.673,0 c -0.144,-0.002 -0.298,0.013 -0.426,0.047 -0.257,0.067 -0.111,0.126 0.326,0.132 0.437,0.006 0.647,-0.049 0.468,-0.122 -0.09,-0.036 -0.224,-0.055 -0.367,-0.057 z m -8.832,1.157 0.777,0.86 c 0.724,0.802 0.943,0.982 0.943,0.777 0,-0.046 -0.387,-0.432 -0.86,-0.86 z m -4.269,1.018 c -0.04,-0.006 -0.068,0.091 -0.076,0.283 -0.011,0.279 0.051,0.435 0.139,0.347 0.088,-0.088 0.098,-0.316 0.021,-0.507 -0.032,-0.079 -0.06,-0.12 -0.084,-0.124 z m -1.803,0.109 c -0.032,0.032 -0.053,0.537 -0.053,1.387 0,1.237 0.046,1.743 0.101,1.124 0.055,-0.619 0.056,-1.63 0,-2.249 -0.017,-0.193 -0.034,-0.277 -0.048,-0.263 z m -3.753,2.537 c -0.04,-0.006 -0.068,0.091 -0.076,0.283 -0.011,0.279 0.051,0.435 0.139,0.347 0.088,-0.088 0.098,-0.316 0.021,-0.507 -0.032,-0.079 -0.06,-0.12 -0.084,-0.124 z m 10.487,0.967 c -0.014,0.014 0.066,0.121 0.231,0.331 0.2,0.255 0.408,0.463 0.463,0.463 0.218,0 0.077,-0.217 -0.363,-0.563 -0.21,-0.165 -0.317,-0.245 -0.331,-0.231 z m 23.142,0.652 c -0.048,-0.018 -0.082,0.134 -0.082,0.407 0,0.364 0.06,0.513 0.133,0.331 0.073,-0.182 0.073,-0.48 0,-0.661 -0.018,-0.045 -0.036,-0.07 -0.052,-0.076 z m -33.867,0.265 c -0.048,-0.018 -0.082,0.134 -0.082,0.407 0,0.364 0.06,0.513 0.133,0.331 0.073,-0.182 0.073,-0.48 0,-0.661 -0.018,-0.045 -0.036,-0.07 -0.052,-0.076 z m 20.095,0.286 c -0.042,0.012 0.028,0.11 0.185,0.29 0.699,0.805 0.511,1.581 -0.352,1.453 -0.104,-0.015 -0.131,0.123 -0.059,0.309 0.079,0.206 -0.105,0.354 -0.472,0.381 -0.636,0.047 -1.793,1.185 -1.793,1.766 0,0.465 -2.656,2.95 -3.408,3.188 -0.331,0.105 -0.543,0.249 -0.471,0.32 0.207,0.207 1.292,-0.436 2.221,-1.316 0.959,-0.908 0.897,-0.933 2.025,0.799 0.859,1.319 2.736,2.485 4.628,2.873 0.558,0.115 0.944,0.373 1.026,0.687 0.176,0.674 0.307,0.493 0.431,-0.597 l 0.137,-1.169 c 0.019,-0.146 0.142,-0.094 0.274,0.115 0.182,0.288 0.299,0.16 0.482,-0.529 0.158,-0.593 0.391,-0.896 0.673,-0.873 0.237,0.019 0.503,-0.189 0.59,-0.463 A 0.77,0.77 0 0 1 53.48,59.83 c 0.29,0 0.453,-0.119 0.363,-0.265 -0.09,-0.146 -0.037,-0.265 0.117,-0.265 0.154,0 0.28,0.103 0.28,0.228 0,0.125 0.321,0.167 0.714,0.091 0.711,-0.136 0.712,-0.137 0.104,-0.362 -1.188,-0.439 -5.01,-3.191 -5.803,-4.177 -0.442,-0.55 -1.258,-1.268 -1.813,-1.595 -0.474,-0.279 -0.712,-0.407 -0.765,-0.392 z m -15.872,0.332 c -0.034,0.018 -0.059,0.178 -0.062,0.451 -0.005,0.437 0.049,0.647 0.122,0.468 0.073,-0.179 0.077,-0.536 0.01,-0.794 -0.025,-0.097 -0.049,-0.136 -0.07,-0.125 z m -11.389,0.14 c -0.01,0.003 -0.02,0.008 -0.029,0.017 -0.069,0.069 -0.047,0.253 0.049,0.408 0.261,0.422 0.414,0.34 0.235,-0.126 -0.075,-0.196 -0.182,-0.318 -0.254,-0.299 z m 6.609,2.651 c -0.04,-0.006 -0.068,0.091 -0.076,0.283 -0.011,0.279 0.051,0.435 0.139,0.347 0.088,-0.088 0.098,-0.316 0.021,-0.507 -0.032,-0.079 -0.06,-0.12 -0.084,-0.124 z m 12.828,0.438 c -0.073,0 -0.412,0.298 -0.753,0.661 -0.341,0.363 -0.562,0.661 -0.489,0.661 0.073,0 0.412,-0.298 0.753,-0.661 0.341,-0.363 0.562,-0.661 0.489,-0.661 z m -10.591,0.088 c -0.289,0.018 -0.477,0.231 -0.451,0.631 0.029,0.442 0.039,0.442 0.152,0.008 0.16,-0.613 0.682,-0.586 1.273,0.066 0.263,0.291 0.547,0.529 0.63,0.529 0.083,0 -0.163,-0.314 -0.547,-0.699 -0.378,-0.378 -0.768,-0.555 -1.057,-0.536 z m -2.405,0.814 c -0.037,-0.017 -0.104,0.08 -0.193,0.288 -0.125,0.291 -0.227,0.708 -0.227,0.926 0,0.25 0.084,0.201 0.227,-0.132 0.125,-0.291 0.227,-0.708 0.227,-0.926 0,-0.094 -0.012,-0.146 -0.034,-0.156 z m 2.483,0.476 c -0.083,-0.022 0.036,0.074 0.351,0.327 0.282,0.226 0.699,0.402 0.926,0.391 0.356,-0.018 0.358,-0.041 0.015,-0.168 l -0.926,-0.39 -0.367,-0.159 z m 29.034,0.209 c -0.073,0 -0.412,0.298 -0.753,0.661 -0.341,0.363 -0.562,0.661 -0.489,0.661 0.073,0 0.412,-0.298 0.753,-0.661 0.341,-0.363 0.562,-0.661 0.489,-0.661 z m -32.037,1.116 c -0.037,-0.007 -0.104,0.056 -0.202,0.207 -0.141,0.218 -0.25,0.575 -0.242,0.794 0.01,0.262 0.092,0.217 0.242,-0.132 0.215,-0.5 0.282,-0.854 0.202,-0.869 z m 10.86,0.034 -1.225,0.11 c -0.674,0.06 -1.439,0.224 -1.7,0.363 -0.261,0.139 -0.596,0.179 -0.745,0.087 -0.149,-0.092 -0.451,-0.018 -0.671,0.165 -0.22,0.183 -0.379,0.223 -0.354,0.089 0.139,-0.729 -0.098,-0.919 -0.303,-0.243 -0.284,0.933 0.183,3.421 0.727,3.872 0.515,0.428 0.435,0.706 -0.241,0.836 -0.327,0.063 0,0.141 0.728,0.174 0.728,0.033 2.633,0.332 4.233,0.666 2.932,0.612 4.645,0.83 3.292,0.42 -0.372,-0.113 -0.937,-0.345 -1.256,-0.516 -0.643,-0.344 -1.639,-2.105 -1.639,-2.897 0,-0.28 -0.19,-1.098 -0.422,-1.817 z m 1.378,0.7 c -0.022,0.01 0.059,0.119 0.227,0.333 0.2,0.255 0.487,0.463 0.639,0.463 0.152,0 0.227,-0.034 0.166,-0.075 l -0.639,-0.463 c -0.245,-0.18 -0.37,-0.268 -0.393,-0.258 z m 1.848,0.83 a 0.92,0.92 0 0 0 -0.331,0.055 c -0.182,0.073 -0.033,0.133 0.331,0.133 0.364,0 0.513,-0.06 0.331,-0.133 a 0.92,0.92 0 0 0 -0.331,-0.055 z m -13.626,0.728 0.625,0.545 c 0.61,0.532 0.83,0.649 0.83,0.443 0,-0.056 -0.327,-0.301 -0.728,-0.545 z m 2.746,1.74 c -0.125,-0.019 -0.167,0.034 -0.098,0.147 0.089,0.144 0.273,0.261 0.41,0.261 0.381,0 0.297,-0.189 -0.162,-0.365 -0.059,-0.023 -0.109,-0.037 -0.151,-0.043 z m 1.488,0.681 c -0.146,0 -0.086,0.115 0.132,0.256 0.218,0.141 0.516,0.256 0.661,0.256 0.145,0 0.086,-0.115 -0.132,-0.256 -0.218,-0.141 -0.516,-0.256 -0.661,-0.256 z m 15.456,1.876 c -0.092,-0.004 -0.196,0.013 -0.292,0.051 -0.211,0.084 -0.149,0.147 0.16,0.16 0.279,0.011 0.435,-0.051 0.347,-0.139 -0.044,-0.044 -0.123,-0.069 -0.215,-0.072 z"
       fill="#deaaa9"
       id="path934" />
    <path
       d="m 43.127,65.648 c -0.238,-0.154 -0.271,-0.258 -0.082,-0.261 0.173,-0.002 0.389,0.115 0.479,0.261 0.203,0.328 0.111,0.328 -0.397,0 z m 1.323,-0.265 c 0.156,-0.291 0.521,-0.529 0.811,-0.529 0.29,0 0.596,-0.178 0.68,-0.395 0.084,-0.217 0.258,-0.329 0.389,-0.249 0.131,0.08 0.237,-0.053 0.237,-0.297 0,-0.329 0.169,-0.411 0.653,-0.318 0.36,0.069 0.586,0.016 0.503,-0.118 -0.178,-0.289 1.774,0.016 2.116,0.33 0.31,0.285 -1.585,1.224 -3.452,1.71 -2.068,0.539 -2.289,0.524 -1.937,-0.134 z M 30.692,64.06 c -0.238,-0.154 -0.271,-0.258 -0.082,-0.261 0.173,-0.002 0.389,0.115 0.479,0.261 0.203,0.328 0.111,0.328 -0.397,0 z m -1.563,-0.708 c 0.091,-0.521 -0.052,-0.791 -0.417,-0.791 -0.318,0 -0.33,0.076 -0.066,0.396 0.284,0.345 0.249,0.355 -0.276,0.075 -0.331,-0.177 -0.534,-0.433 -0.449,-0.569 0.085,-0.136 -0.044,-0.172 -0.301,-0.074 -0.332,0.128 -0.396,0.08 -0.237,-0.176 0.141,-0.228 0.114,-0.287 -0.076,-0.17 -0.161,0.099 -0.668,-0.155 -1.127,-0.565 l -0.834,-0.746 0.535,-1.842 c 0.294,-1.013 0.78,-3.628 1.078,-5.811 0.643,-4.702 1.288,-7.354 2.367,-9.736 0.928,-2.048 2.953,-4.335 4.099,-4.632 1.126,-0.292 1.179,-0.783 0.105,-0.984 -1.042,-0.195 -2.367,0.282 -3.784,1.362 -1.666,1.27 -3.295,3.948 -5.672,9.32 -2.981,6.737 -2.94,6.654 -3.303,6.654 -0.354,0 -2.338,-4.092 -2.759,-5.686 l -0.278,-1.056 1.803,-1.855 c 0.992,-1.02 2.599,-2.826 3.571,-4.013 4.383,-5.354 7.639,-7.102 10.504,-5.641 l 1.048,0.535 V 36.8 c 0,-1.12 -2.635,-2.885 -4.327,-2.898 -1.204,-0.009 -3.882,0.772 -5.188,1.513 a 194.52,194.52 0 0 0 -3.339,1.971 c -1.176,0.709 -2.757,1.524 -3.513,1.812 -1.284,0.488 -1.386,0.492 -1.549,0.069 -0.198,-0.517 0.644,-6.77 1.024,-7.604 0.23,-0.505 0.479,-0.551 3.081,-0.563 l 5.926,-0.102 c 2.894,-0.083 3.187,-0.044 4.506,0.602 1.76,0.861 2.692,1.822 3.681,3.796 l 0.774,1.543 -0.102,-1.852 c -0.212,-3.866 -2.84,-6.827 -7.721,-8.701 -2.762,-1.06 -4.758,-2.018 -5.59,-2.682 l -0.743,-0.592 0.769,-1.11 c 0.992,-1.431 3.907,-4.51 4.27,-4.51 0.154,0 0.658,0.583 1.12,1.296 0.462,0.713 2.087,2.628 3.612,4.257 2.076,2.217 3.031,3.479 3.806,5.027 1.344,2.685 1.824,5.235 1.408,7.475 -0.331,1.779 -0.216,2.206 0.375,1.397 0.73,-0.998 1.161,-3.118 1.161,-5.711 0,-3.146 -0.646,-5.565 -2.796,-10.465 -1.458,-3.323 -2.496,-6.028 -2.496,-6.505 0,-0.531 2.114,-1.073 4.696,-1.205 1.492,-0.076 2.712,-0.063 2.712,0.03 0,0.569 -1.239,1.495 -2,1.495 -1.789,0 -1.784,1.299 0.008,2.141 l 1.115,0.524 0.451,4.29 c 0.661,6.296 0.672,6.702 0.26,9.449 -0.42,2.798 -1.398,5.164 -2.714,6.565 -0.453,0.482 -0.823,0.928 -0.823,0.992 0,0.064 0.3,0.116 0.667,0.116 0.823,0 2.817,-1.779 3.72,-3.32 1.357,-2.316 2.445,-6.836 3.148,-13.084 0.144,-1.28 0.735,-4.85 1.083,-6.547 0.067,-0.327 0.269,-0.565 0.448,-0.529 0.179,0.036 0.296,-0.084 0.26,-0.266 -0.094,-0.468 0.375,-0.412 0.559,0.066 0.084,0.218 0.047,0.397 -0.081,0.397 -0.282,0 -0.188,1.097 0.139,1.613 0.319,0.503 0.315,0.857 -0.012,1.124 -0.162,0.132 -0.085,0.163 0.187,0.075 0.328,-0.106 0.591,0.097 0.914,0.703 0.249,0.468 0.428,0.943 0.397,1.057 -0.031,0.114 0.123,0.275 0.342,0.359 0.715,0.274 0.42,0.617 -0.391,0.454 a 1.92,1.92 0 0 0 -1.455,0.277 c -0.917,0.601 -0.881,1.97 0.104,3.947 0.669,1.343 0.733,1.664 0.502,2.514 -0.42,1.549 -2.331,5.581 -3.533,7.457 -2.03,3.168 -3.818,4.498 -6.046,4.498 -1.206,0 -1.39,0.125 -1.014,0.688 0.676,1.012 3.462,1.206 5.305,0.37 1.548,-0.702 4.094,-3.19 7.214,-7.047 2.394,-2.96 3.726,-4.329 4.211,-4.329 0.106,0 0.145,0.426 0.088,0.947 -0.057,0.521 -0.007,0.887 0.112,0.813 0.225,-0.139 0.255,0.023 0.34,1.846 0.028,0.601 0.148,1.249 0.267,1.441 0.119,0.192 0.091,0.581 -0.062,0.866 -0.227,0.425 -0.202,0.489 0.139,0.358 0.35,-0.134 0.375,-0.05 0.156,0.526 -0.143,0.377 -0.199,0.747 -0.123,0.823 0.076,0.076 0.005,0.297 -0.157,0.492 -0.217,0.261 -0.216,0.355 0.002,0.355 0.746,0 0.191,0.474 -0.695,0.593 -1.19,0.16 -2.985,0.967 -5.49,2.466 -3.417,2.045 -5.832,2.819 -7.835,2.509 -1.546,-0.239 -2.315,-0.659 -3.328,-1.815 -0.464,-0.53 -0.918,-0.889 -1.009,-0.798 -0.363,0.363 0.23,2.058 1.149,3.286 1.87,2.497 4.686,3.237 9.946,2.614 5.243,-0.621 5.906,-0.52 4.909,0.746 -0.289,0.367 -0.526,0.858 -0.526,1.089 0,0.231 -0.155,0.421 -0.344,0.421 -0.212,0 -0.354,0.354 -0.37,0.916 -0.028,0.974 -0.603,2.523 -0.937,2.523 -0.11,0 -0.2,0.231 -0.2,0.514 0,0.283 -0.127,0.592 -0.283,0.688 -0.156,0.096 -0.217,0.346 -0.137,0.555 0.084,0.219 -0.219,0.102 -0.716,-0.277 -0.474,-0.362 -1.693,-1.035 -2.708,-1.496 -5.023,-2.281 -6.254,-2.97 -7.532,-4.215 -1.659,-1.616 -2.572,-3.53 -2.803,-5.878 -0.097,-0.988 -0.262,-1.796 -0.366,-1.796 -0.104,0 -0.326,0.46 -0.495,1.023 -1.015,3.389 0.637,8.42 3.957,12.043 0.857,0.935 1.558,1.843 1.558,2.018 0,0.175 -0.595,0.877 -1.323,1.56 -1.498,1.407 -1.712,2.368 -0.789,3.542 0.36,0.458 0.439,0.737 0.242,0.859 -0.425,0.263 -0.7,-0.111 -1.277,-1.738 -0.283,-0.796 -1.006,-2.634 -1.607,-4.084 -2.191,-5.284 -2.838,-9.354 -1.998,-12.578 0.246,-0.946 0.68,-2.097 0.964,-2.559 0.627,-1.019 0.282,-1.335 -0.654,-0.599 -1.013,0.797 -2.17,3.498 -2.655,6.2 -0.53,2.953 -0.535,4.486 -0.026,8.361 0.404,3.08 0.437,7.907 0.054,7.91 -0.114,10e-4 -0.08,0.239 0.075,0.53 0.224,0.418 0.201,0.529 -0.107,0.529 -0.215,0 -0.464,-0.119 -0.554,-0.265 -0.09,-0.146 -0.283,-0.265 -0.428,-0.265 -0.145,0 -0.196,0.111 -0.112,0.246 0.084,0.135 0.028,0.323 -0.123,0.417 -0.151,0.094 -0.258,0.072 -0.238,-0.048 z m 1.058,-4.745 c 0.306,-0.369 0.221,-0.548 -0.633,-1.33 -0.822,-0.753 -1.074,-0.857 -1.512,-0.623 -0.794,0.425 -0.644,1.256 0.335,1.853 1.044,0.636 1.351,0.653 1.81,0.1 z m 24.782,0.242 c -0.545,-0.22 -0.925,-0.507 -0.844,-0.637 0.081,-0.13 -0.006,-0.237 -0.193,-0.237 -0.187,0 0.045,-0.35 0.514,-0.779 0.469,-0.429 0.853,-0.9 0.853,-1.049 0,-0.149 0.238,-0.398 0.529,-0.553 0.291,-0.155 0.531,-0.487 0.533,-0.737 0.004,-0.39 0.04,-0.398 0.261,-0.057 0.316,0.49 0.341,0.872 0.044,0.689 -0.121,-0.075 -0.22,0.035 -0.22,0.245 0,0.294 0.084,0.312 0.365,0.078 0.201,-0.167 0.304,-0.462 0.229,-0.657 -0.075,-0.195 -0.014,-0.354 0.136,-0.354 0.15,0 0.198,-0.119 0.108,-0.265 -0.09,-0.146 -0.024,-0.265 0.148,-0.265 0.189,0 0.261,-0.259 0.185,-0.661 -0.07,-0.364 -0.024,-0.661 0.101,-0.661 0.125,0 0.228,-0.186 0.228,-0.414 0,-0.228 0.143,-0.674 0.318,-0.992 0.456,-0.828 0.49,-1.296 0.13,-1.76 -0.278,-0.358 -0.259,-0.362 0.159,-0.033 0.261,0.205 0.418,0.521 0.349,0.702 -0.069,0.181 0.078,0.382 0.328,0.447 0.25,0.065 0.593,0.57 0.762,1.121 0.268,0.872 0.236,1.144 -0.245,2.09 -0.765,1.505 -2.411,3.883 -3.161,4.569 -0.592,0.541 -0.677,0.55 -1.615,0.171 z m 3.625,-6.412 c 0.084,-0.135 0.051,-0.309 -0.073,-0.385 -0.124,-0.076 -0.225,0.034 -0.225,0.246 0,0.446 0.083,0.485 0.297,0.139 z M 62.309,40.5 c -0.437,-0.275 -1.19,-0.72 -1.674,-0.988 -0.784,-0.434 -0.834,-0.526 -0.457,-0.839 0.368,-0.305 0.4,-0.286 0.246,0.149 -0.141,0.399 -0.108,0.436 0.164,0.185 0.187,-0.173 0.392,-0.947 0.455,-1.72 0.071,-0.873 0.024,-1.277 -0.123,-1.067 -0.147,0.21 -0.223,-0.348 -0.199,-1.495 0.028,-1.353 -0.047,-1.8 -0.287,-1.708 -0.245,0.094 -0.27,-0.12 -0.101,-0.872 0.124,-0.548 0.157,-1.106 0.075,-1.239 -0.082,-0.133 0.014,-0.347 0.215,-0.474 0.294,-0.186 0.28,-0.232 -0.07,-0.235 -0.239,-0.002 -0.497,-0.167 -0.574,-0.366 -0.112,-0.292 -0.016,-0.305 0.499,-0.066 0.351,0.163 0.639,0.392 0.64,0.51 10e-4,0.118 0.117,0.143 0.257,0.056 0.545,-0.337 1.265,0.884 1.574,2.669 0.173,1.003 0.435,2.299 0.58,2.881 0.323,1.289 0.206,4.959 -0.161,5.052 -0.146,0.037 -0.622,-0.159 -1.058,-0.434 z M 56.753,21.238 c -0.56,-0.182 -0.858,-0.834 -0.381,-0.834 0.154,0 0.195,-0.149 0.09,-0.331 -0.111,-0.192 -0.089,-0.238 0.051,-0.11 0.132,0.121 0.241,0.325 0.241,0.452 0,0.127 0.238,0.411 0.529,0.631 0.552,0.417 0.369,0.484 -0.529,0.192 z m -1.448,-2.281 c -0.338,-0.359 -0.71,-0.594 -0.827,-0.522 -0.117,0.072 -0.344,-0.113 -0.504,-0.412 -0.16,-0.299 -0.423,-0.463 -0.583,-0.363 -0.179,0.11 -0.217,0.059 -0.099,-0.132 0.19,-0.308 1.725,0.71 2.526,1.676 0.542,0.652 0.159,0.469 -0.513,-0.246 z m -2.801,-2.139 c -0.493,-0.395 -0.49,-0.4 0.082,-0.123 0.327,0.159 0.595,0.344 0.595,0.411 0,0.202 -0.137,0.144 -0.677,-0.288 z"
       fill="#f30d04"
       id="path936" />
    <path
       d="m 39.543,65.54 c -0.952,-0.415 -1.53,-1.223 -2.003,-2.803 -0.269,-0.899 -0.274,-1.176 -0.023,-1.26 0.177,-0.059 0.248,-0.228 0.156,-0.376 -0.101,-0.164 0.046,-0.155 0.378,0.023 1.294,0.693 3.886,-0.061 4.563,-1.327 0.36,-0.673 0.957,-0.63 1.329,0.096 0.481,0.936 1.882,2.312 2.801,2.75 1.061,0.505 1.358,1.12 0.459,0.948 -0.468,-0.09 -0.637,-0.004 -0.637,0.322 0,0.244 -0.107,0.377 -0.237,0.297 -0.13,-0.08 -0.305,0.032 -0.389,0.249 -0.084,0.217 -0.379,0.395 -0.657,0.395 -0.278,0 -0.687,0.268 -0.909,0.595 -0.325,0.479 -0.471,0.531 -0.747,0.265 -0.188,-0.182 -0.468,-0.329 -0.621,-0.327 -0.153,0.002 -0.099,0.119 0.119,0.261 0.626,0.404 -2.634,0.307 -3.584,-0.107 z m -8.465,-1.498 c -0.096,-0.155 -0.341,-0.219 -0.545,-0.141 -0.204,0.078 -0.37,0.027 -0.37,-0.114 0,-0.141 -0.165,-0.256 -0.368,-0.256 -0.203,0 -0.649,-0.24 -0.992,-0.533 -0.377,-0.322 -0.468,-0.505 -0.229,-0.463 0.218,0.038 0.554,0.249 0.747,0.467 0.193,0.218 0.28,0.255 0.194,0.082 -0.097,-0.194 0.04,-0.3 0.359,-0.276 0.284,0.021 0.458,0.133 0.387,0.249 -0.071,0.116 0.06,0.21 0.292,0.21 0.34,0 0.367,-0.103 0.139,-0.529 -0.192,-0.359 -0.195,-0.529 -0.009,-0.529 0.151,0 0.275,0.149 0.276,0.331 0.001,0.182 0.172,0.658 0.381,1.058 0.354,0.678 0.124,1.069 -0.262,0.445 z m 21.046,-6.97 c -2.114,-1.406 -3.221,-2.557 -3.319,-3.449 -0.041,-0.373 0.034,-0.611 0.167,-0.529 0.133,0.082 0.241,-0.096 0.241,-0.396 0,-0.3 0.09,-0.545 0.2,-0.545 0.334,0 0.91,-1.549 0.937,-2.523 0.016,-0.563 0.159,-0.916 0.37,-0.916 0.189,0 0.344,-0.183 0.344,-0.408 0,-0.225 0.259,-0.758 0.576,-1.186 0.47,-0.636 0.717,-0.754 1.348,-0.643 0.781,0.138 3.106,1.227 3.832,1.795 1.056,0.826 1.929,1.882 1.811,2.189 -0.085,0.222 0.012,0.287 0.279,0.185 0.225,-0.086 0.1,0.152 -0.278,0.531 -0.378,0.379 -0.688,0.931 -0.688,1.229 0,0.298 -0.103,0.541 -0.228,0.541 -0.125,0 -0.171,0.298 -0.101,0.661 0.077,0.402 0.005,0.661 -0.185,0.661 -0.171,0 -0.237,0.119 -0.148,0.265 0.089,0.146 0.041,0.265 -0.108,0.265 -0.149,0 -0.211,0.16 -0.136,0.354 0.075,0.194 -0.028,0.491 -0.229,0.657 -0.281,0.233 -0.365,0.216 -0.365,-0.078 0,-0.21 0.099,-0.32 0.22,-0.245 0.297,0.183 0.272,-0.199 -0.044,-0.689 -0.22,-0.341 -0.257,-0.333 -0.261,0.057 -0.002,0.25 -0.242,0.581 -0.533,0.737 -0.291,0.156 -0.529,0.405 -0.529,0.553 0,0.148 -0.369,0.607 -0.819,1.018 -0.582,0.531 -0.716,0.789 -0.463,0.89 0.196,0.078 0.237,0.146 0.092,0.151 -0.145,0.005 -1.038,-0.505 -1.984,-1.135 z m 6.174,-4.775 c 0,-0.212 0.101,-0.323 0.225,-0.246 0.124,0.077 0.156,0.25 0.073,0.385 -0.214,0.346 -0.297,0.307 -0.297,-0.139 z m 2.041,-13.373 c 0.314,-0.613 0.305,-0.634 -0.119,-0.284 -0.362,0.299 -0.633,0.317 -1.3,0.086 -0.463,-0.16 -1.557,-0.434 -2.43,-0.609 L 54.506,37.72 53.878,37.621 c -0.127,-0.011 -0.098,-0.18 0.064,-0.375 0.162,-0.195 0.233,-0.417 0.157,-0.492 -0.076,-0.075 -0.02,-0.446 0.123,-0.823 0.219,-0.576 0.194,-0.66 -0.156,-0.526 -0.342,0.131 -0.367,0.067 -0.139,-0.358 0.152,-0.285 0.18,-0.674 0.062,-0.866 -0.118,-0.192 -0.238,-0.84 -0.267,-1.441 -0.085,-1.801 -0.115,-1.985 -0.313,-1.862 -0.104,0.065 -0.171,-0.363 -0.148,-0.951 0.028,-0.713 0.148,-1.027 0.362,-0.945 0.176,0.067 0.357,0.012 0.403,-0.123 0.252,-0.743 5.328,-0.005 5.863,0.853 0.165,0.264 0.48,0.483 0.7,0.485 0.33,0.003 0.336,0.044 0.035,0.235 -0.201,0.127 -0.297,0.34 -0.215,0.474 0.082,0.134 0.049,0.691 -0.075,1.239 -0.17,0.752 -0.145,0.966 0.101,0.872 0.24,-0.092 0.315,0.354 0.287,1.708 -0.024,1.147 0.051,1.706 0.199,1.495 0.148,-0.211 0.194,0.195 0.123,1.071 -0.071,0.876 -0.289,1.576 -0.579,1.852 -0.44,0.42 -0.447,0.408 -0.126,-0.218 z M 48.763,20.775 c -0.408,-0.378 -0.746,-0.765 -0.752,-0.86 -0.006,-0.095 -0.215,-0.556 -0.465,-1.024 -0.323,-0.606 -0.587,-0.808 -0.915,-0.703 -0.273,0.088 -0.349,0.057 -0.187,-0.075 0.327,-0.267 0.331,-0.621 0.012,-1.124 -0.327,-0.516 -0.421,-1.613 -0.139,-1.613 0.128,0 0.164,-0.179 0.081,-0.397 -0.083,-0.218 -0.266,-0.397 -0.404,-0.397 -0.138,0 -0.183,0.111 -0.1,0.246 0.083,0.135 0.02,0.328 -0.142,0.428 -0.185,0.114 -0.26,-0.002 -0.2,-0.312 0.126,-0.666 1.389,-0.79 2.256,-0.222 0.458,0.3 0.607,0.328 0.461,0.085 -0.168,-0.279 -0.132,-0.293 0.166,-0.064 0.21,0.162 0.737,0.379 1.17,0.483 0.988,0.237 4.261,2.392 4.473,2.945 0.087,0.226 0.258,0.35 0.38,0.274 0.122,-0.076 0.808,0.482 1.523,1.239 l 0.918,1.046 c -0.472,-0.406 -0.902,-0.433 -0.661,-0.042 0.126,0.203 -0.276,0.225 -1.373,0.073 -2.076,-0.287 -3.734,-0.172 -4.416,0.306 -0.742,0.52 -0.822,0.506 -1.686,-0.295 z"
       fill="#a01006"
       id="path938" />
  </g>
</svg>
